<!--?xml version="1.0" standalone="no"?-->
              <svg id="sw-js-blob-svg" viewBox="0 0 100 100" xmlns="http://www.w3.org/2000/svg" version="1.1">
                    <defs> 
                        <linearGradient id="sw-gradient" x1="0" x2="1" y1="1" y2="0">
                            <stop id="stop1" stop-color="rgba(255, 51.835, 51.835, 1)" offset="0%"></stop>
                            <stop id="stop2" stop-color="rgba(255, 250.715, 10.223, 1)" offset="100%"></stop>
                        </linearGradient>
                    </defs>
                <path fill="url(#sw-gradient)" d="M16.1,-29.6C19.4,-23,19.4,-15.9,20.7,-10.3C21.9,-4.7,24.4,-0.4,26.6,5.8C28.8,12.1,30.9,20.3,27.2,22.4C23.6,24.6,14.3,20.7,6.9,22.2C-0.4,23.7,-5.7,30.6,-9.1,30.1C-12.6,29.5,-14.1,21.6,-19.5,16.4C-24.9,11.2,-34.1,8.7,-36,4.4C-37.9,0,-32.4,-6.1,-27.7,-11C-23,-16,-18.9,-19.6,-14.4,-25.6C-9.9,-31.6,-5,-40,0.7,-41.2C6.4,-42.3,12.9,-36.2,16.1,-29.6Z" width="100%" height="100%" transform="translate(50 50)" stroke-width="0" style="transition: all 0.3s ease 0s;"></path>
              </svg>