<!--?xml version="1.0" standalone="no"?-->
              <svg id="sw-js-blob-svg" viewBox="0 0 100 100" xmlns="http://www.w3.org/2000/svg" version="1.1">
                    <defs> 
                        <linearGradient id="sw-gradient" x1="0" x2="1" y1="1" y2="0">
                            <stop id="stop1" stop-color="rgba(248, 55, 198.851, 1)" offset="0%"></stop>
                            <stop id="stop2" stop-color="rgba(10.223, 118.583, 255, 1)" offset="100%"></stop>
                        </linearGradient>
                    </defs>
                <path fill="url(#sw-gradient)" d="M20.1,-34.9C24.2,-28.7,24.4,-20,25,-13.1C25.6,-6.2,26.5,-1.1,28,5.6C29.4,12.2,31.4,20.5,28.6,26.2C25.9,31.8,18.5,34.7,10.9,36.7C3.4,38.6,-4.3,39.7,-11,37.6C-17.6,35.5,-23.3,30.3,-25.3,24.1C-27.3,17.9,-25.5,10.7,-23.5,5.2C-21.5,-0.3,-19.3,-4,-17,-7.2C-14.7,-10.3,-12.3,-12.9,-9.4,-19.6C-6.6,-26.4,-3.3,-37.3,2.4,-41C8,-44.7,16,-41.1,20.1,-34.9Z" width="100%" height="100%" transform="translate(50 50)" stroke-width="0" style="transition: all 0.3s ease 0s;"></path>
              </svg>