<!--?xml version="1.0" standalone="no"?-->
              <svg id="sw-js-blob-svg" viewBox="0 0 100 100" xmlns="http://www.w3.org/2000/svg" version="1.1">
                    <defs> 
                        <linearGradient id="sw-gradient" x1="0" x2="1" y1="1" y2="0">
                            <stop id="stop1" stop-color="rgba(248, 55, 198.851, 1)" offset="0%"></stop>
                            <stop id="stop2" stop-color="rgba(251, 168, 31, 1)" offset="100%"></stop>
                        </linearGradient>
                    </defs>
                <path fill="url(#sw-gradient)" d="M23,-32.9C26.9,-28.8,25.2,-18.2,26.5,-9.7C27.7,-1.2,31.8,5.3,30.9,10.6C29.9,15.9,23.8,20.2,17.8,25.8C11.8,31.4,5.9,38.3,0.8,37.2C-4.2,36,-8.5,26.8,-12.8,20.6C-17.2,14.5,-21.6,11.5,-25.7,6.5C-29.8,1.6,-33.7,-5.3,-33.4,-12.3C-33.1,-19.3,-28.8,-26.5,-22.6,-29.8C-16.3,-33.2,-8.2,-32.7,0.7,-33.6C9.5,-34.6,19.1,-37,23,-32.9Z" width="100%" height="100%" transform="translate(50 50)" stroke-width="0" style="transition: all 0.3s ease 0s;"></path>
              </svg>